<?xml version="1.0" encoding="UTF-8"?>
<svg xmlns="http://www.w3.org/2000/svg" version="1.1" viewBox="0 0 741 996.5">
  <defs>
    <style>
      .cls-1 {
        fill: #20522d;
        stroke: #20522d;
        stroke-miterlimit: 10;
        stroke-width: 64px;
      }
    </style>
  </defs>
  <!-- Generator: Adobe Illustrator 28.7.1, SVG Export Plug-In . SVG Version: 1.2.0 Build 142)  -->
  <g>
    <g id="Ebene_1">
      <path class="cls-1" d="M508.94,941.25H232.06c-15.3,0-27.69-12.38-27.69-27.69v-415.31H65.94c-10.6,0-20.26-6.05-24.9-15.57-4.62-9.54-3.41-20.89,3.14-29.23L348.73,65.82c5.24-6.67,13.49-10.57,21.74-10.57,8.27,0,16.54,3.89,21.79,10.57l304.56,387.63c6.54,8.34,7.76,19.69,3.14,29.23-4.64,9.53-14.31,15.57-24.9,15.57h-138.44v415.31c0,15.3-12.38,27.69-27.69,27.69h0ZM259.75,885.87h221.5v-415.31c0-15.3,12.38-27.69,27.69-27.69h109.15L370.5,127.74,122.91,442.87h109.15c15.3,0,27.69,12.38,27.69,27.69v415.31Z"/>
    </g>
  </g>
</svg>