<?xml version="1.0" encoding="UTF-8"?>
<svg xmlns="http://www.w3.org/2000/svg" version="1.1" viewBox="0 0 741 996.5">
  <defs>
    <style>
      .cls-1 {
        fill: #20522d;
        stroke: #20522d;
        stroke-miterlimit: 10;
        stroke-width: 64px;
      }
    </style>
  </defs>
  <!-- Generator: Adobe Illustrator 28.7.1, SVG Export Plug-In . SVG Version: 1.2.0 Build 142)  -->
  <g>
    <g id="Ebene_1">
      <path class="cls-1" d="M232.06,55.25h276.87c15.3,0,27.69,12.38,27.69,27.69v415.31h138.44c10.6,0,20.26,6.05,24.9,15.57,4.62,9.54,3.41,20.89-3.14,29.23l-304.56,387.62c-5.24,6.67-13.49,10.57-21.74,10.57-8.27,0-16.54-3.89-21.79-10.57L44.17,543.05c-6.54-8.34-7.76-19.69-3.14-29.23,4.64-9.53,14.31-15.57,24.9-15.57h138.44V82.94c0-15.3,12.38-27.69,27.69-27.69h0ZM481.25,110.63h-221.5v415.31c0,15.3-12.38,27.69-27.69,27.69h-109.15l247.59,315.13,247.59-315.13h-109.15c-15.3,0-27.69-12.38-27.69-27.69V110.63Z"/>
    </g>
  </g>
</svg>